<svg xmlns="http://www.w3.org/2000/svg" preserveAspectRatio="none" version="1.1" viewBox="611.01 224.58 1311.52 326.24">

 <g>
  <title>Layer 1</title>
  <path id="svg_1" d="m1211.07182,282.39474c-1.39,-18.582 -0.83,-35.629 15.35,-48.16c5.08,-3.898 10.95,-6.631 17.21,-8.005c10.84,-2.417 57.09,-1.762 70.26,-0.657c24.09,2.019 42.51,13.589 57.37,32.713l3.26,5.092c2.17,3.62 5.8,9.289 7.5,12.937c1.78,3.194 1.51,4.117 4.72,5.946c7.04,4.019 38.74,-3.696 41.96,-2.76c32.32,9.377 91.25,-6.568 118.4,10.594c22.84,-13.335 53.61,-13.382 76.78,-0.652c21.85,-11.311 33.81,-6.207 57.11,-6.47c13.67,-0.155 20.2,-6.167 35.8,-1.286c0.82,0.26 1.64,0.544 2.45,0.851c-0.07,-6.764 0.67,-10.027 2.45,-16.505c-0.08,-13.001 17.25,-28.917 28.25,-34.194c14,-6.851 30.17,-7.748 44.84,-2.49c13.26,4.9 22.29,13.937 28.14,26.709c3.4,6.573 4.03,10.232 5.5,17.427c0.43,3.671 -0.07,5.513 2.05,7.695c13.13,-1.468 24.68,-2.206 37.66,1.828c27.12,8.426 49.79,30.194 53.17,59.357c1.46,12.661 -0.61,23.875 -7.77,34.754c9.59,20.032 9.07,31.273 8.96,52.993c-0.29,55.721 -63.65,89.852 -111.59,65.303c-20.05,8.55 -55.44,11.008 -74.08,-1.659c-6.34,3.076 -13.05,6.64 -19.78,8.578c-3.22,46.948 -29.48,50.384 -69.6,47.887c-29.2,-1.818 -38.18,-25.312 -38.12,-50.693c-21.81,5.447 -39.74,6.404 -60.47,-5.363c-22.45,10.433 -105.39,12.708 -125.36,-0.686c-14.98,7.975 -23.26,8.737 -40.04,8.707c-14.55,-0.026 -22.14,0.871 -34.57,-7.903c-18.38,9.085 -24.3,10.252 -43.2,0.737c-23.47,11.125 -38.68,6.28 -63.58,5.51c-30.49,-0.943 -86.99,7.608 -113.81,-3.795c-27.68,8.847 -43.07,9.835 -70.76,-0.898c-19.4,7.326 -53.33,9.57 -72.3,1.099c-1.6,-0.721 -3.2,-1.471 -4.78,-2.25c-8.49,4.079 -12.82,5.78 -22.41,7.599c-0.31,44.885 -25.277,49.614 -62.661,48.334c-26.397,-0.904 -44.993,-16.642 -43.902,-43.454c0.08,-1.815 0.202,-3.627 0.365,-5.436c-7.91,-0.371 -15.519,-1.754 -23.325,-0.345c-18.761,3.384 -28.998,1.584 -46.794,-3.888c-31.042,9.939 -82.218,0.908 -115.811,4.393c-20.742,2.152 -46.762,-4.112 -52.524,-27.97c-3.662,-15.166 -2.78,-40.24 0.489,-55.784c8.461,-24.608 27.17,-50.59 38.957,-74.259c-12.626,-2.164 -23.299,-4.132 -31.683,-15.269c1.724,-3.059 6.075,-4.458 9.442,-5.95c-3.318,-4.543 -4.045,-6.58 -6.218,-11.846c-2.994,5.827 -5.518,1.919 -9.394,7.832c-2.321,-6.127 -3.074,-13.595 -3.067,-20.162c0.023,-22.856 -4.388,-47.964 15.895,-64.242c5.753,-4.555 12.591,-7.537 19.844,-8.652c12.1,-1.949 43.788,-0.318 57.628,-0.44c20.301,0.4 40.829,-0.983 61.079,0.427c13.529,0.942 21.989,8.873 29.859,18.906c1.048,2.122 2.793,5.061 2.886,7.293c3.121,10.044 3.911,19.465 1.571,29.799c27.295,-3.586 38.934,-2.74 63.983,8.773c3.308,-1.707 9.404,-4.837 12.737,-5.749c11.239,-3.073 36.807,-3.426 47.339,-0.391c15.671,-5.799 25.025,-5.645 40.995,-1.109c-0.67,-12.641 1.88,-23.273 9.24,-33.796c8.59,-12.347 21.85,-20.658 36.71,-23.017c21.37,-3.444 41.62,5.817 53.63,23.672c6.84,10.165 8.05,19.994 9.72,31.683c22.73,-3.901 34.9,-2.483 56.25,6.374c19.04,-9.512 57.81,-5.724 79.79,-5.617z" fill="rgb(251,251,249)"/>
  <path id="svg_2" d="m1816.14182,273.37574c3.79,0.849 6.88,-0.801 12.28,0.109c0.43,3.671 -0.07,5.513 2.05,7.695c13.13,-1.468 24.68,-2.206 37.66,1.828c27.12,8.426 49.79,30.194 53.17,59.357c1.46,12.661 -0.61,23.875 -7.77,34.754c9.59,20.032 9.07,31.273 8.96,52.993c-0.29,55.721 -63.65,89.852 -111.59,65.303c-20.05,8.55 -55.44,11.008 -74.08,-1.659c-6.34,3.076 -13.05,6.64 -19.78,8.578c-3.22,46.948 -29.48,50.384 -69.6,47.887c-29.2,-1.818 -38.18,-25.312 -38.12,-50.693c-21.81,5.447 -39.74,6.404 -60.47,-5.363c-22.45,10.433 -105.39,12.708 -125.36,-0.686c-14.98,7.975 -23.26,8.737 -40.04,8.707c-14.55,-0.026 -22.14,0.871 -34.57,-7.903c-18.38,9.085 -24.3,10.252 -43.2,0.737c-23.47,11.125 -38.68,6.28 -63.58,5.51c-30.49,-0.943 -86.99,7.608 -113.81,-3.795c-27.68,8.847 -43.07,9.835 -70.76,-0.898c-19.4,7.326 -53.33,9.57 -72.3,1.099c-1.6,-0.721 -3.2,-1.471 -4.78,-2.25c-8.49,4.079 -12.82,5.78 -22.41,7.599c-0.31,44.885 -25.277,49.614 -62.661,48.334c-26.397,-0.904 -44.993,-16.642 -43.902,-43.454c0.08,-1.815 0.202,-3.627 0.365,-5.436c-7.91,-0.371 -15.519,-1.754 -23.325,-0.345c-18.761,3.384 -28.998,1.584 -46.794,-3.888c-31.042,9.939 -82.218,0.908 -115.811,4.393c-20.742,2.152 -46.762,-4.112 -52.524,-27.97c-3.662,-15.166 -2.78,-40.24 0.489,-55.784c8.461,-24.608 27.17,-50.59 38.957,-74.259c-12.626,-2.164 -23.299,-4.132 -31.683,-15.269c1.724,-3.059 6.075,-4.458 9.442,-5.95c14.691,13.186 24.159,7.523 42.315,8.907c-9.314,19.202 -21.007,38.888 -31.335,56.953c-11.871,19.625 -21.262,35.642 -18.933,59.557c0.507,5.202 -0.137,10.604 0.734,16.583c5.156,35.417 45.431,23.001 70.959,24.616c21.41,1.354 45.167,-0.626 66.715,0.231c8.187,-0.084 13.927,-1.866 20.982,-5.817c19.535,9.399 30.159,9.189 50.48,3.331c9.344,3.524 20.562,2.537 30.654,2.399c-0.504,28.879 -1.683,49.618 36.386,49.247c13.704,-0.133 28.769,2.011 39.542,-8.434c0.364,-0.353 0.723,-0.711 1.078,-1.074l2.758,-4.015c5.222,-10.097 4.042,-23.508 4.012,-34.948c15.83,0.032 22.49,-2.869 35.48,-10.965c5.31,4.603 11.91,8.998 19.09,9.537c19.89,1.495 36.68,3.897 53.82,-7.465c23.78,12.913 48.98,13.024 73.22,0.909c2.6,1.477 11.48,6.379 14.21,6.536c32.44,1.866 65.41,0.711 97.88,-0.469c22.92,-0.833 47.4,9.208 65.16,-10.966c7.35,7.073 11.13,9.057 20.23,12.922c11.04,-3.222 13.14,-4.464 21.32,-12.156c12.66,13.933 30.47,11.885 47.57,11.667c11.69,-0.15 20.6,-3.835 28.37,-12.448c12.04,12.441 19.43,12.509 36.01,12.212c23.84,-0.427 48.16,0.946 71.9,-0.962c4.15,-0.334 12.43,-6.093 15.65,-8.498c17.94,10.495 37.89,14.568 57.45,7.877c2.39,-0.818 12.25,-3.486 14.23,-3.347c2.77,2.889 3.32,6.244 2.95,9.961c-4,42.462 17,45.571 52.73,43.822c31.75,-1.554 30.3,-22.828 29.95,-48.074c14.99,-1.206 20.77,-2.73 33.27,-11.038c17.46,14.334 52.58,14.636 70.93,2.021c26.18,15.486 64.25,12.435 85.24,-10.104c24.16,-25.946 24.93,-65.892 5.98,-94.542c12.75,-12.956 14.8,-30.08 7.31,-46.145c-17.56,-37.698 -56.59,-45.181 -91.36,-30.544c1.68,-10.042 1.99,-16.403 0.61,-26.558z" fill="rgb(11,37,63)"/>
  <path id="svg_3" d="m942.92982,525.14074c3.872,1.813 4.582,1.384 6.592,4.426l-0.88,1.363c-3.55,0.685 -5.39,0.163 -8.47,-1.774l2.758,-4.015z" fill="rgb(14,43,72)"/>
  <path id="svg_4" d="m1211.07182,282.39474c-1.39,-18.582 -0.83,-35.629 15.35,-48.16c5.08,-3.898 10.95,-6.631 17.21,-8.005c10.84,-2.417 57.09,-1.762 70.26,-0.657c24.09,2.019 42.51,13.589 57.37,32.713c-4.98,0.286 -6.65,1.682 -10.45,5.357c-15.48,-16.778 -33.01,-25.561 -56.59,-25.998c-18.86,-0.351 -38.63,-1.143 -57.34,0.843c-29.85,5.067 -24.78,35.611 -24.76,56.666c-24.61,-0.158 -53.2,-1.632 -77.77,1.285c-3.55,0.421 -8.88,4.065 -11.76,6.307c-25.88,-13.815 -44.16,-13.463 -70.86,-2.191c4.87,-27.007 -2.41,-56.399 -33.42,-61.719c-11.81,-2.071 -23.96,0.636 -33.77,7.525c-19.06,13.535 -19.86,34.454 -16.47,55.35c-23.36,-14.229 -30.77,-8.185 -55.172,-6.134c-21.73,1.826 -37.673,-7.949 -56.374,10.687c-24.245,-18.595 -50.201,-16.689 -76.799,-5.715c0.418,-9.186 0.492,-17.323 0.41,-26.524c4.571,-0.454 5.034,-1.253 8.549,0.461c1.194,2.958 1.406,3.939 1.992,7.086c27.295,-3.586 38.934,-2.74 63.983,8.773c3.308,-1.707 9.404,-4.837 12.737,-5.749c11.239,-3.073 36.807,-3.426 47.339,-0.391c15.671,-5.799 25.025,-5.645 40.995,-1.109c-0.67,-12.641 1.88,-23.273 9.24,-33.796c8.59,-12.347 21.85,-20.658 36.71,-23.017c21.37,-3.444 41.62,5.817 53.63,23.672c6.84,10.165 8.05,19.994 9.72,31.683c22.73,-3.901 34.9,-2.483 56.25,6.374c19.04,-9.512 57.81,-5.724 79.79,-5.617z" fill="rgb(11,37,63)"/>
  <path id="svg_5" d="m1213.50182,260.88074c2.54,-0.412 3.14,-0.407 5.7,-0.223c1.83,2.362 1.25,4.258 1.4,7.802c-2.82,0.013 -3.59,0.02 -6.33,-0.608c-1.63,-2.862 -1,-3.282 -0.77,-6.971z" fill="rgb(14,43,72)"/>
  <path id="svg_6" d="m1371.04182,280.87874c3.29,-3.028 6.7,-3.498 10.98,-4.564c1.78,3.194 1.51,4.117 4.72,5.946c7.04,4.019 38.74,-3.696 41.96,-2.76c32.32,9.377 91.25,-6.568 118.4,10.594c22.84,-13.335 53.61,-13.382 76.78,-0.652c21.85,-11.311 33.81,-6.207 57.11,-6.47c13.67,-0.155 20.2,-6.167 35.8,-1.286c0.82,0.26 1.64,0.544 2.45,0.851l2.87,0.043c-2.74,5.323 -2.6,5.722 -4.1,11.198c-17.34,-2.981 -21.41,0.603 -37.48,1.921c-22.51,1.845 -35.86,-8.008 -55.26,10.102c-24.63,-18.498 -53.29,-17.629 -78.2,-0.501c-13.7,-12.174 -20.42,-10.304 -37.98,-10.318c-9.22,-0.008 -18.78,0.036 -28.03,0.059l-105.12,0.111c-1.34,-4.917 -3.13,-9.509 -4.9,-14.274z" fill="rgb(11,37,63)"/>
  <path id="svg_7" d="m614.98282,318.64274c-2.321,-6.127 -3.074,-13.595 -3.067,-20.162c0.023,-22.856 -4.388,-47.964 15.895,-64.242c5.753,-4.555 12.591,-7.537 19.844,-8.652c12.1,-1.949 43.788,-0.318 57.628,-0.44c20.301,0.4 40.829,-0.983 61.079,0.427c13.529,0.942 21.989,8.873 29.859,18.906c-3.739,0.257 -9.716,0.259 -12.402,3.09c-8.197,-8.25 -13.803,-10.025 -25.403,-10.062l-74.214,0.008c-10.136,-0.003 -27.101,-0.961 -36.359,0.569c-25.245,4.173 -25.791,32.646 -24.693,52.577c0.351,6.386 -0.409,13.686 1.227,20.149c-2.994,5.827 -5.518,1.919 -9.394,7.832z" fill="rgb(11,37,63)"/>
  <path id="svg_8" d="m1721.69182,266.03274c-0.08,-13.001 17.25,-28.917 28.25,-34.194c14,-6.851 30.17,-7.748 44.84,-2.49c13.26,4.9 22.29,13.937 28.14,26.709c3.4,6.573 4.03,10.232 5.5,17.427c-5.4,-0.91 -8.49,0.74 -12.28,-0.109l-1.52,-6.124c-14.72,-41.36 -67.44,-38.249 -82.04,3.881l-1.72,10.498c-3.75,1.863 -2.9,-1.487 -8.75,0.95l-2.87,-0.043c-0.07,-6.764 0.67,-10.027 2.45,-16.505z" fill="rgb(11,37,63)"/>
  <path id="svg_9" d="m1721.69182,266.03274c0.75,3.849 0.23,4.546 2.59,7.074c2.4,-0.901 5.92,-2.535 8.3,-1.974l-1.72,10.498c-3.75,1.863 -2.9,-1.487 -8.75,0.95l-2.87,-0.043c-0.07,-6.764 0.67,-10.027 2.45,-16.505z" fill="rgb(11,32,54)"/>
  <path id="svg_10" d="m1822.92182,256.05774c3.4,6.573 4.03,10.232 5.5,17.427c-5.4,-0.91 -8.49,0.74 -12.28,-0.109l-1.52,-6.124c2.22,-0.555 4.71,-1.475 6.9,-2.22c2.47,-3.303 1.53,-3.784 1.4,-8.974z" fill="rgb(11,32,54)"/>
  <path id="svg_11" d="m796.22082,244.47974c1.048,2.122 2.793,5.061 2.886,7.293c3.121,10.044 3.911,19.465 1.571,29.799c-0.586,-3.147 -0.798,-4.128 -1.992,-7.086c-3.515,-1.714 -3.978,-0.915 -8.549,-0.461l0.15,-9.802c-1.018,-6.632 -3.109,-10.968 -6.468,-16.653c2.686,-2.831 8.663,-2.833 12.402,-3.09z" fill="rgb(14,43,72)"/>
  <path id="svg_12" d="m799.10682,251.77274c3.121,10.044 3.911,19.465 1.571,29.799c-0.586,-3.147 -0.798,-4.128 -1.992,-7.086c-3.515,-1.714 -3.978,-0.915 -8.549,-0.461l0.15,-9.802c2.969,-0.254 4.091,-0.543 6.976,-1.327c2.346,-3.436 1.662,-6.403 1.844,-11.123z" fill="rgb(11,32,54)"/>
  <path id="svg_13" d="m1360.81182,263.64274c3.8,-3.675 5.47,-5.071 10.45,-5.357l3.26,5.092c2.17,3.62 5.8,9.289 7.5,12.937c-4.28,1.066 -7.69,1.536 -10.98,4.564l-4.37,-8.634l-5.86,-8.602z" fill="rgb(11,32,54)"/>
  <path id="svg_14" d="m1360.81182,263.64274c3.8,-3.675 5.47,-5.071 10.45,-5.357l3.26,5.092c-0.68,6.079 -1.89,6.845 -7.85,8.867l-5.86,-8.602z" fill="rgb(14,43,72)"/>
  <path id="svg_15" d="m1730.86182,281.63074c0.53,6.889 0.83,12.261 2.27,19.055c-5.88,-3.181 -9,-4.522 -15.12,-6.907c1.5,-5.476 1.36,-5.875 4.1,-11.198c5.85,-2.437 5,0.913 8.75,-0.95z" fill="rgb(14,43,72)"/>
  <path id="svg_16" d="m1248.60182,264.39774c26.28,-0.242 71.17,-5.264 90.32,13.757c23.27,23.117 22.89,77.021 -0.6,100.197c-15.8,15.584 -33.2,14.382 -53.38,14.428c-0.24,11.938 1.33,60.794 -2.07,68.082c-4.83,3.133 -28.67,1.756 -35.64,1.52c-1.42,-33.405 0.56,-70.853 -0.26,-104.479c-0.28,-11.432 -0.96,-88.479 1.63,-93.505z" fill="rgb(251,103,1)"/>
  <path id="svg_17" d="m1286.03182,301.76174c8.22,-0.269 15.95,-1.111 23.22,3.56c14.84,9.541 11.83,32.33 3.46,45.056c-8.25,6.912 -17.26,5.353 -27.85,5.161c-0.08,-8.424 -1.23,-49.172 1.17,-53.777z" fill="rgb(251,251,249)"/>
  <path id="svg_18" d="m650.63082,264.31474l70.494,-0.097c9.409,-0.005 35.508,-0.668 43.258,1.47c2.561,4.69 1.386,25.759 1.255,32.255c-10.365,16.914 -20.865,37.069 -30.357,54.675c-12.184,22.334 -24.138,44.793 -35.861,67.372c22.738,-0.163 45.477,-0.082 68.214,0.242l0.22,12.4c0.126,8.311 1.861,25.154 -3,30.166c-39.12,0.21 -78.242,0.14 -117.362,-0.211c-0.571,-9.467 -0.131,-23.664 -0.145,-33.494c23.343,-40.918 45.992,-82.227 67.937,-123.91c-11.909,-0.12 -55.791,0.974 -64.46,-0.898c-3.763,-4.123 -3.857,-34.949 -0.193,-39.97z" fill="rgb(11,37,63)"/>
  <path id="svg_19" d="m944.95182,318.62974c1.89,0.024 3.77,0.134 5.64,0.328c49.26,5.007 49.87,127.735 6.85,143.834c-15.64,5.855 -26.069,0.126 -35.173,-12.492l-0.015,59.83c-0.955,1.276 -2.008,1.888 -3.575,2.129c-5.439,0.834 -26.733,1.989 -30.855,-1.955c-2.18,-2.085 -1.185,-170.683 -1.202,-188.271c11.128,-0.444 20.831,-0.243 31.91,0.045c0.516,4.194 0.708,9.964 0.984,14.297c8.05,-11.276 11.97,-14.882 25.436,-17.745z" fill="rgb(11,37,63)"/>
  <path id="svg_20" d="m932.36582,354.12974c25.156,-2.736 20.316,35.431 19.676,51.336c-0.35,8.826 -3.49,17.743 -10.493,23.321c-24.777,4.902 -19.409,-34.894 -19.604,-48.905c-0.148,-10.68 1.879,-19.196 10.421,-25.752z" fill="rgb(251,251,249)"/>
  <path id="svg_21" d="m1701.69182,318.64974c52.51,0.118 51.18,107.262 24.27,135.466c-15.43,16.177 -31.05,13.128 -45.62,-1.444c-0.85,17.56 -0.14,39.03 -0.35,56.997c-3.8,4.88 -27.76,3.611 -33.44,0.979c-1.87,-2.254 -1.99,-2.99 -1.96,-6.141c0.42,-60.755 -0.94,-121.95 0.31,-182.657c9.23,-0.66 21.92,-0.138 31.41,-0.011c0.52,4.005 0.78,9.152 1.11,13.266c8.06,-10.205 11.38,-14.017 24.27,-16.455z" fill="rgb(251,103,1)"/>
  <path id="svg_22" d="m1692.86182,353.43374c11.69,1.19 15.41,13.493 15.98,23.576c0.9,15.819 3.58,45.156 -13.5,52.661c-17.45,-1.587 -16.46,-24.709 -16.2,-37.752c0.27,-13.831 -1.73,-32.645 13.72,-38.485z" fill="rgb(251,251,249)"/>
  <path id="svg_23" d="m820.06482,318.64974c1.542,-0.07 3.086,-0.091 4.63,-0.064c62.787,0.927 40.737,77.85 45.026,118.759c0.778,7.427 0.594,17.582 0.443,25.148c-9.363,0.547 -21.299,0.273 -30.853,0.318l-1.407,-14.313c-15.01,21.88 -36.361,22.323 -53.452,2.414c-5.296,-8.647 -8.119,-18.581 -8.164,-28.721c-0.388,-36.325 28.56,-46.14 59.309,-45.914c0.091,-4.686 0.684,-13.26 -1.378,-17.071c-11.043,-20.414 -21.356,-5.198 -25.52,7.663c-9.915,-2.139 -19.064,-4.693 -28.811,-7.398c5.029,-25.679 14.267,-35.887 40.177,-40.821z" fill="rgb(11,37,63)"/>
  <path id="svg_24" d="m824.63682,401.30174c4.396,-0.199 11.237,-1.451 11.885,4.003c1.495,12.602 -1.998,24.062 -13.96,28.603c-18.853,-4.363 -16.497,-26.136 2.075,-32.606z" fill="rgb(251,251,249)"/>
  <path id="svg_25" d="m1576.80182,319.52674c51.01,-5.097 56.6,42.946 55.03,81.418c-19.26,0.944 -41,0.157 -60.79,0.524c0.28,26.104 19.79,44.907 32.56,14.023c5.33,0.928 24.46,5.913 27.63,10.041c-1.07,4.324 -2.57,8.533 -4.46,12.566c-19.75,41.342 -73.35,33.361 -85.16,-9.473c-10.16,-36.855 -8.25,-95.105 35.19,-109.099z" fill="rgb(251,103,1)"/>
  <path id="svg_26" d="m1582.13182,350.04174c11.17,-0.202 14.1,6.106 17.99,16.023c1.14,2.905 -0.01,5.983 -1.69,8.528c-2.68,1.865 -6.62,1.218 -10.16,1.132c-5.21,0.192 -13.12,1.241 -16.97,-1.663c-2.68,-7.186 4.73,-19.615 10.83,-24.02z" fill="rgb(251,251,249)"/>
  <path id="svg_27" d="m1150.11182,321.68774c27.06,0.228 54.16,-0.236 81.21,0.335l0.01,28.907l-43.38,75.762l44.09,0.024l0.23,16.516c0.05,6.881 1.31,14.834 -3.1,19.311l-83.68,-0.094c-0.14,-5.048 -0.92,-25.229 0.58,-28.364c11.38,-23.827 30.43,-54.651 43.55,-77.246c-13.61,-0.471 -27.89,-0.109 -41.55,0.025c-0.03,-7.058 -1.65,-31.003 2.04,-35.176z" fill="rgb(11,37,63)"/>
  <path id="svg_28" d="m1091.82182,318.58374c2.22,-0.039 4.44,0.002 6.66,0.124c17.42,1.094 39.16,15.33 37.57,34.59c-3.06,4.337 -20.86,8.988 -26.88,10.901c-1.77,-6.611 -5.36,-15.636 -12.78,-14.706c-21.06,2.64 -9.14,18.654 2.85,23.588c22.46,9.52 39.03,18.537 38.88,45.81c-0.16,30.662 -18.75,46.169 -48.16,46.418c-14.79,-2.568 -27.71,-7.3 -35.33,-21.492c-2.52,-4.679 -6.49,-13.988 -4.99,-19.299c4.32,-3.606 21.61,-7.654 28.09,-9.396c1.21,4.442 2.51,9.41 5.85,12.797c5.16,5.234 14.45,6.804 19.65,0.543c1.75,-2.075 2.51,-4.809 2.08,-7.489c-1.82,-12.049 -25.26,-18.329 -35.91,-25.132c-26.18,-16.718 -21.7,-60.53 5.99,-72.82c5.78,-2.568 9.97,-3.404 16.43,-4.437z" fill="rgb(11,37,63)"/>
  <path id="svg_29" d="m1451.46182,321.74674c23.63,0.039 53.69,-0.975 76.66,0.371c0.05,4.439 0.75,24.015 -0.5,26.829c-10.6,23.784 -29.18,54.74 -41.79,77.361c14.36,0.163 28.73,0.245 43.1,0.247c0.17,8.468 1.24,25.321 -0.72,33.577c-0.39,1.651 -2.28,1.971 -3.78,2.497l-79.64,-0.065c-0.54,-16.585 -2.73,-25.496 5.56,-40.247c12.17,-21.663 24.54,-43.387 36.39,-65.224c-13,-0.461 -27.36,-0.161 -40.59,-0.409c-0.25,-7.87 -1.52,-25.343 0.8,-32.709c0.56,-1.768 2.72,-1.825 4.51,-2.228z" fill="rgb(251,103,1)"/>
  <path id="svg_30" d="m1847.00182,318.68474c7.18,0.374 9.71,0.507 17.33,3.513c9.34,3.684 28.9,20.439 22.12,32.034c-2.07,3.524 -20.24,8.47 -25.63,10.165c-1.03,-3.773 -1.6,-6.717 -3.95,-10.105c-5.29,-7.652 -19.72,-6.98 -19.02,4.044c1.36,12.764 18.43,16.622 28.89,21.939c26.57,13.499 30.67,52.103 9.99,72.616c-10.05,9.964 -21.72,12.377 -36.13,12.256c-25.36,-4.736 -34.14,-16.465 -39.06,-40.619c8.17,-3.563 19.48,-7.01 28.03,-9.361c1.38,4.098 2.8,9.086 5.95,12.34c6.97,7.212 22.13,7.499 21.2,-5.868c-0.52,-8.907 -10.05,-13.548 -17.19,-16.439c-25.54,-10.337 -39.42,-25.854 -32.82,-54.537c4.86,-21.149 19.47,-30.759 40.29,-31.978z" fill="rgb(251,103,1)"/>
  <path id="svg_31" d="m1421.19182,319.43974c3.27,-0.359 10.73,-1.708 12.59,1.581c4.96,8.813 2.27,28.132 2.03,38.493c-57.97,-6.898 -22.51,70.538 -35.76,101.285c-1.43,3.301 -27.61,1.695 -32.33,1.543c-0.96,-4.866 -0.59,-35.613 -0.58,-42.177l0.14,-98.155c7.27,-0.03 12.86,-0.579 20.07,-1.143c13.82,-1.083 13.14,7.638 13.45,17.731c6.68,-10.808 8.95,-13.963 20.39,-19.158z" fill="rgb(251,103,1)"/>
  <path id="svg_32" d="m1020.84182,321.76574c5.59,-0.153 10.77,0.159 16.34,0.445c1.15,44.891 0.27,95.081 0.05,140.263c-5.34,0.241 -11.53,0.133 -16.95,0.175c-5.42,0.037 -12.35,0.693 -17.12,-1.341c-1.44,-2.168 -1.55,-5.386 -1.53,-10.062c0.21,-42.107 -0.73,-84.738 0.61,-126.779c0.48,-0.503 0.95,-1.006 1.42,-1.509c4.76,-1.814 11.89,-1.249 17.18,-1.192z" fill="rgb(11,37,63)"/>
  <path id="svg_33" d="m1766.79182,321.77074c6.61,-0.181 19.55,-1.966 23.96,3.084c1.49,11.406 0.82,44.04 0.49,56.286c-0.31,11.404 1.68,74.313 -1.19,79.895c-3.49,2.205 -2.94,1.513 -7.62,1.587l-25.6,-0.096c-1.45,-13.549 -1.71,-134.141 1.17,-139.245c2.55,-2.002 5.54,-1.561 8.79,-1.511z" fill="rgb(251,103,1)"/>
  <path id="svg_34" d="m1015.39182,264.20074c27.55,-1.021 33.84,32.132 8.82,42.517c-29.46,1.503 -33.05,-32.937 -8.82,-42.517z" fill="rgb(11,37,63)"/>
  <path id="svg_35" d="m1770.60182,264.25974c10.15,-0.619 17.82,2.718 21.52,12.882c2.29,6.193 1.96,13.054 -0.92,18.997c-3.17,6.42 -7.13,8.406 -13.56,10.652c-26.1,1.854 -32.89,-32.02 -7.04,-42.531z" fill="rgb(251,103,1)"/>
  <path id="svg_54" d="m624.37682,310.81074c2.173,5.266 2.9,7.303 6.218,11.846c-3.367,1.492 -7.718,2.891 -9.442,5.95c-3.477,-4.066 -3.971,-5.04 -6.17,-9.964c3.876,-5.913 6.4,-2.005 9.394,-7.832z" fill="rgb(11,32,54)"/>
 </g>
</svg>