<svg version="1.1" xmlns="http://www.w3.org/2000/svg" style="display: block;" viewBox="46.667 233.333 1970.667 668" width="1970.667" height="668" preserveAspectRatio="none">
<defs>
	<linearGradient id="svgi_r_1v___Gradient1" gradientUnits="userSpaceOnUse" x1="546.636" y1="755.435" x2="491.413" y2="709.122">
		<stop class="stop0" offset="0" stop-opacity="1" stop-color="rgb(172,164,150)"></stop>
		<stop class="stop1" offset="1" stop-opacity="1" stop-color="rgb(215,207,191)"></stop>
	</linearGradient>
</defs>
<path transform="translate(0,0)" fill="rgb(251,251,249)" d="M 1267.89 505.122 C 1266.5 486.54 1267.06 469.493 1283.24 456.962 C 1288.32 453.064 1294.19 450.331 1300.45 448.957 C 1311.29 446.54 1357.54 447.195 1370.71 448.3 C 1394.8 450.319 1413.22 461.889 1428.08 481.013 L 1431.34 486.105 C 1433.51 489.725 1437.14 495.394 1438.84 499.042 C 1440.62 502.236 1440.35 503.159 1443.56 504.988 C 1450.6 509.007 1482.3 501.292 1485.52 502.228 C 1517.84 511.605 1576.77 495.66 1603.92 512.822 C 1626.76 499.487 1657.53 499.44 1680.7 512.17 C 1702.55 500.859 1714.51 505.963 1737.81 505.7 C 1751.48 505.545 1758.01 499.533 1773.61 504.414 C 1774.43 504.674 1775.25 504.958 1776.06 505.265 C 1775.99 498.501 1776.73 495.238 1778.51 488.76 C 1778.43 475.759 1795.76 459.843 1806.76 454.566 C 1820.76 447.715 1836.93 446.818 1851.6 452.076 C 1864.86 456.976 1873.89 466.013 1879.74 478.785 C 1883.14 485.358 1883.77 489.017 1885.24 496.212 C 1885.67 499.883 1885.17 501.725 1887.29 503.907 C 1900.42 502.439 1911.97 501.701 1924.95 505.735 C 1952.07 514.161 1974.74 535.929 1978.12 565.092 C 1979.58 577.753 1977.51 588.967 1970.35 599.846 C 1979.94 619.878 1979.42 631.119 1979.31 652.839 C 1979.02 708.56 1915.66 742.691 1867.72 718.142 C 1847.67 726.692 1812.28 729.15 1793.64 716.483 C 1787.3 719.559 1780.59 723.123 1773.86 725.061 C 1770.64 772.009 1744.38 775.445 1704.26 772.948 C 1675.06 771.13 1666.08 747.636 1666.14 722.255 C 1644.33 727.702 1626.4 728.659 1605.67 716.892 C 1583.22 727.325 1500.28 729.6 1480.31 716.206 C 1465.33 724.181 1457.05 724.943 1440.27 724.913 C 1425.72 724.887 1418.13 725.784 1405.7 717.01 C 1387.32 726.095 1381.4 727.262 1362.5 717.747 C 1339.03 728.872 1323.82 724.027 1298.92 723.257 C 1268.43 722.314 1211.93 730.865 1185.11 719.462 C 1157.43 728.309 1142.04 729.297 1114.35 718.564 C 1094.95 725.89 1061.02 728.134 1042.05 719.663 C 1040.45 718.942 1038.85 718.192 1037.27 717.413 C 1028.78 721.492 1024.45 723.193 1014.86 725.012 C 1014.55 769.897 989.583 774.626 952.199 773.346 C 925.802 772.442 907.206 756.704 908.297 729.892 C 908.377 728.077 908.499 726.265 908.662 724.456 C 900.752 724.085 893.143 722.702 885.337 724.111 C 866.576 727.495 856.339 725.695 838.543 720.223 C 807.501 730.162 756.325 721.131 722.732 724.616 C 701.99 726.768 675.97 720.504 670.208 696.646 C 666.546 681.48 667.428 656.406 670.697 640.862 C 679.158 616.254 697.867 590.272 709.654 566.603 C 697.028 564.439 686.355 562.471 677.971 551.334 C 679.695 548.275 684.046 546.876 687.413 545.384 C 684.095 540.841 683.368 538.804 681.195 533.538 C 678.201 539.365 675.677 535.457 671.801 541.37 C 669.48 535.243 668.727 527.775 668.734 521.208 C 668.757 498.352 664.346 473.244 684.629 456.966 C 690.382 452.411 697.22 449.429 704.473 448.314 C 716.573 446.365 748.261 447.996 762.101 447.874 C 782.402 448.274 802.93 446.891 823.18 448.301 C 836.709 449.243 845.169 457.174 853.039 467.207 C 854.087 469.329 855.832 472.268 855.925 474.5 C 859.046 484.544 859.836 493.965 857.496 504.299 C 884.791 500.713 896.43 501.559 921.479 513.072 C 924.787 511.365 930.883 508.235 934.216 507.323 C 945.455 504.25 971.023 503.897 981.555 506.932 C 997.226 501.133 1006.58 501.287 1022.55 505.823 C 1021.88 493.182 1024.43 482.55 1031.79 472.027 C 1040.38 459.68 1053.64 451.369 1068.5 449.01 C 1089.87 445.566 1110.12 454.827 1122.13 472.682 C 1128.97 482.847 1130.18 492.676 1131.85 504.365 C 1154.58 500.464 1166.75 501.882 1188.1 510.739 C 1207.14 501.227 1245.91 505.015 1267.89 505.122 z"></path>
<path transform="translate(0,0)" fill="rgb(11,37,63)" d="M 1872.96 496.103 C 1876.75 496.952 1879.84 495.302 1885.24 496.212 C 1885.67 499.883 1885.17 501.725 1887.29 503.907 C 1900.42 502.439 1911.97 501.701 1924.95 505.735 C 1952.07 514.161 1974.74 535.929 1978.12 565.092 C 1979.58 577.753 1977.51 588.967 1970.35 599.846 C 1979.94 619.878 1979.42 631.119 1979.31 652.839 C 1979.02 708.56 1915.66 742.691 1867.72 718.142 C 1847.67 726.692 1812.28 729.15 1793.64 716.483 C 1787.3 719.559 1780.59 723.123 1773.86 725.061 C 1770.64 772.009 1744.38 775.445 1704.26 772.948 C 1675.06 771.13 1666.08 747.636 1666.14 722.255 C 1644.33 727.702 1626.4 728.659 1605.67 716.892 C 1583.22 727.325 1500.28 729.6 1480.31 716.206 C 1465.33 724.181 1457.05 724.943 1440.27 724.913 C 1425.72 724.887 1418.13 725.784 1405.7 717.01 C 1387.32 726.095 1381.4 727.262 1362.5 717.747 C 1339.03 728.872 1323.82 724.027 1298.92 723.257 C 1268.43 722.314 1211.93 730.865 1185.11 719.462 C 1157.43 728.309 1142.04 729.297 1114.35 718.564 C 1094.95 725.89 1061.02 728.134 1042.05 719.663 C 1040.45 718.942 1038.85 718.192 1037.27 717.413 C 1028.78 721.492 1024.45 723.193 1014.86 725.012 C 1014.55 769.897 989.583 774.626 952.199 773.346 C 925.802 772.442 907.206 756.704 908.297 729.892 C 908.377 728.077 908.499 726.265 908.662 724.456 C 900.752 724.085 893.143 722.702 885.337 724.111 C 866.576 727.495 856.339 725.695 838.543 720.223 C 807.501 730.162 756.325 721.131 722.732 724.616 C 701.99 726.768 675.97 720.504 670.208 696.646 C 666.546 681.48 667.428 656.406 670.697 640.862 C 679.158 616.254 697.867 590.272 709.654 566.603 C 697.028 564.439 686.355 562.471 677.971 551.334 C 679.695 548.275 684.046 546.876 687.413 545.384 C 702.104 558.57 711.572 552.907 729.728 554.291 C 720.414 573.493 708.721 593.179 698.393 611.244 C 686.522 630.869 677.131 646.886 679.46 670.801 C 679.967 676.003 679.323 681.405 680.194 687.384 C 685.35 722.801 725.625 710.385 751.153 712 C 772.563 713.354 796.32 711.374 817.868 712.231 C 826.055 712.147 831.795 710.365 838.85 706.414 C 858.385 715.813 869.009 715.603 889.33 709.745 C 898.674 713.269 909.892 712.282 919.984 712.144 C 919.48 741.023 918.301 761.762 956.37 761.391 C 970.074 761.258 985.139 763.402 995.912 752.957 C 996.276 752.604 996.635 752.246 996.99 751.883 L 999.748 747.868 C 1004.97 737.771 1003.79 724.36 1003.76 712.92 C 1019.59 712.952 1026.25 710.051 1039.24 701.955 C 1044.55 706.558 1051.15 710.953 1058.33 711.492 C 1078.22 712.987 1095.01 715.389 1112.15 704.027 C 1135.93 716.94 1161.13 717.051 1185.37 704.936 C 1187.97 706.413 1196.85 711.315 1199.58 711.472 C 1232.02 713.338 1264.99 712.183 1297.46 711.003 C 1320.38 710.17 1344.86 720.211 1362.62 700.037 C 1369.97 707.11 1373.75 709.094 1382.85 712.959 C 1393.89 709.737 1395.99 708.495 1404.17 700.803 C 1416.83 714.736 1434.64 712.688 1451.74 712.47 C 1463.43 712.32 1472.34 708.635 1480.11 700.022 C 1492.15 712.463 1499.54 712.531 1516.12 712.234 C 1539.96 711.807 1564.28 713.18 1588.02 711.272 C 1592.17 710.938 1600.45 705.179 1603.67 702.774 C 1621.61 713.269 1641.56 717.342 1661.12 710.651 C 1663.51 709.833 1673.37 707.165 1675.35 707.304 C 1678.12 710.193 1678.67 713.548 1678.3 717.265 C 1674.3 759.727 1695.3 762.836 1731.03 761.087 C 1762.78 759.533 1761.33 738.259 1760.98 713.013 C 1775.97 711.807 1781.75 710.283 1794.25 701.975 C 1811.71 716.309 1846.83 716.611 1865.18 703.996 C 1891.36 719.482 1929.43 716.431 1950.42 693.892 C 1974.58 667.946 1975.35 628 1956.4 599.35 C 1969.15 586.394 1971.2 569.27 1963.71 553.205 C 1946.15 515.507 1907.12 508.024 1872.35 522.661 C 1874.03 512.619 1874.34 506.258 1872.96 496.103 z"></path>
<path transform="translate(0,0)" fill="rgb(14,43,72)" d="M 999.748 747.868 C 1003.62 749.681 1004.33 749.252 1006.34 752.294 L 1005.46 753.657 C 1001.91 754.342 1000.07 753.82 996.99 751.883 L 999.748 747.868 z"></path>
<path transform="translate(0,0)" fill="rgb(11,37,63)" d="M 1267.89 505.122 C 1266.5 486.54 1267.06 469.493 1283.24 456.962 C 1288.32 453.064 1294.19 450.331 1300.45 448.957 C 1311.29 446.54 1357.54 447.195 1370.71 448.3 C 1394.8 450.319 1413.22 461.889 1428.08 481.013 C 1423.1 481.299 1421.43 482.695 1417.63 486.37 C 1402.15 469.592 1384.62 460.809 1361.04 460.372 C 1342.18 460.021 1322.41 459.229 1303.7 461.215 C 1273.85 466.282 1278.92 496.826 1278.94 517.881 C 1254.33 517.723 1225.74 516.249 1201.17 519.166 C 1197.62 519.587 1192.29 523.231 1189.41 525.473 C 1163.53 511.658 1145.25 512.01 1118.55 523.282 C 1123.42 496.275 1116.14 466.883 1085.13 461.563 C 1073.32 459.492 1061.17 462.199 1051.36 469.088 C 1032.3 482.623 1031.5 503.542 1034.89 524.438 C 1011.53 510.209 1004.12 516.253 979.718 518.304 C 957.988 520.13 942.045 510.355 923.344 528.991 C 899.099 510.396 873.143 512.302 846.545 523.276 C 846.963 514.09 847.037 505.953 846.955 496.752 C 851.526 496.298 851.989 495.499 855.504 497.213 C 856.698 500.171 856.91 501.152 857.496 504.299 C 884.791 500.713 896.43 501.559 921.479 513.072 C 924.787 511.365 930.883 508.235 934.216 507.323 C 945.455 504.25 971.023 503.897 981.555 506.932 C 997.226 501.133 1006.58 501.287 1022.55 505.823 C 1021.88 493.182 1024.43 482.55 1031.79 472.027 C 1040.38 459.68 1053.64 451.369 1068.5 449.01 C 1089.87 445.566 1110.12 454.827 1122.13 472.682 C 1128.97 482.847 1130.18 492.676 1131.85 504.365 C 1154.58 500.464 1166.75 501.882 1188.1 510.739 C 1207.14 501.227 1245.91 505.015 1267.89 505.122 z"></path>
<path transform="translate(0,0)" fill="rgb(14,43,72)" d="M 1270.32 483.608 C 1272.86 483.196 1273.46 483.201 1276.02 483.385 C 1277.85 485.747 1277.27 487.643 1277.42 491.187 C 1274.6 491.2 1273.83 491.207 1271.09 490.579 C 1269.46 487.717 1270.09 487.297 1270.32 483.608 z"></path>
<path transform="translate(0,0)" fill="rgb(11,37,63)" d="M 1427.86 503.606 C 1431.15 500.578 1434.56 500.108 1438.84 499.042 C 1440.62 502.236 1440.35 503.159 1443.56 504.988 C 1450.6 509.007 1482.3 501.292 1485.52 502.228 C 1517.84 511.605 1576.77 495.66 1603.92 512.822 C 1626.76 499.487 1657.53 499.44 1680.7 512.17 C 1702.55 500.859 1714.51 505.963 1737.81 505.7 C 1751.48 505.545 1758.01 499.533 1773.61 504.414 C 1774.43 504.674 1775.25 504.958 1776.06 505.265 L 1778.93 505.308 C 1776.19 510.631 1776.33 511.03 1774.83 516.506 C 1757.49 513.525 1753.42 517.109 1737.35 518.427 C 1714.84 520.272 1701.49 510.419 1682.09 528.529 C 1657.46 510.031 1628.8 510.9 1603.89 528.028 C 1590.19 515.854 1583.47 517.724 1565.91 517.71 C 1556.69 517.702 1547.13 517.746 1537.88 517.769 L 1432.76 517.88 C 1431.42 512.963 1429.63 508.371 1427.86 503.606 z"></path>
<path transform="translate(0,0)" fill="rgb(11,37,63)" d="M 671.801 541.37 C 669.48 535.243 668.727 527.775 668.734 521.208 C 668.757 498.352 664.346 473.244 684.629 456.966 C 690.382 452.411 697.22 449.429 704.473 448.314 C 716.573 446.365 748.261 447.996 762.101 447.874 C 782.402 448.274 802.93 446.891 823.18 448.301 C 836.709 449.243 845.169 457.174 853.039 467.207 C 849.3 467.464 843.323 467.466 840.637 470.297 C 832.44 462.047 826.834 460.272 815.234 460.235 L 741.02 460.243 C 730.884 460.24 713.919 459.282 704.661 460.812 C 679.416 464.985 678.87 493.458 679.968 513.389 C 680.319 519.775 679.559 527.075 681.195 533.538 C 678.201 539.365 675.677 535.457 671.801 541.37 z"></path>
<path transform="translate(0,0)" fill="rgb(11,37,63)" d="M 1778.51 488.76 C 1778.43 475.759 1795.76 459.843 1806.76 454.566 C 1820.76 447.715 1836.93 446.818 1851.6 452.076 C 1864.86 456.976 1873.89 466.013 1879.74 478.785 C 1883.14 485.358 1883.77 489.017 1885.24 496.212 C 1879.84 495.302 1876.75 496.952 1872.96 496.103 L 1871.44 489.979 C 1856.72 448.619 1804 451.73 1789.4 493.86 L 1787.68 504.358 C 1783.93 506.221 1784.78 502.871 1778.93 505.308 L 1776.06 505.265 C 1775.99 498.501 1776.73 495.238 1778.51 488.76 z"></path>
<path transform="translate(0,0)" fill="rgb(11,32,54)" d="M 1778.51 488.76 C 1779.26 492.609 1778.74 493.306 1781.1 495.834 C 1783.5 494.933 1787.02 493.299 1789.4 493.86 L 1787.68 504.358 C 1783.93 506.221 1784.78 502.871 1778.93 505.308 L 1776.06 505.265 C 1775.99 498.501 1776.73 495.238 1778.51 488.76 z"></path>
<path transform="translate(0,0)" fill="rgb(11,32,54)" d="M 1879.74 478.785 C 1883.14 485.358 1883.77 489.017 1885.24 496.212 C 1879.84 495.302 1876.75 496.952 1872.96 496.103 L 1871.44 489.979 C 1873.66 489.424 1876.15 488.504 1878.34 487.759 C 1880.81 484.456 1879.87 483.975 1879.74 478.785 z"></path>
<path transform="translate(0,0)" fill="rgb(14,43,72)" d="M 853.039 467.207 C 854.087 469.329 855.832 472.268 855.925 474.5 C 859.046 484.544 859.836 493.965 857.496 504.299 C 856.91 501.152 856.698 500.171 855.504 497.213 C 851.989 495.499 851.526 496.298 846.955 496.752 L 847.105 486.95 C 846.087 480.318 843.996 475.982 840.637 470.297 C 843.323 467.466 849.3 467.464 853.039 467.207 z"></path>
<path transform="translate(0,0)" fill="rgb(11,32,54)" d="M 855.925 474.5 C 859.046 484.544 859.836 493.965 857.496 504.299 C 856.91 501.152 856.698 500.171 855.504 497.213 C 851.989 495.499 851.526 496.298 846.955 496.752 L 847.105 486.95 C 850.074 486.696 851.196 486.407 854.081 485.623 C 856.427 482.187 855.743 479.22 855.925 474.5 z"></path>
<path transform="translate(0,0)" fill="rgb(11,32,54)" d="M 1417.63 486.37 C 1421.43 482.695 1423.1 481.299 1428.08 481.013 L 1431.34 486.105 C 1433.51 489.725 1437.14 495.394 1438.84 499.042 C 1434.56 500.108 1431.15 500.578 1427.86 503.606 L 1423.49 494.972 L 1417.63 486.37 z"></path>
<path transform="translate(0,0)" fill="rgb(14,43,72)" d="M 1417.63 486.37 C 1421.43 482.695 1423.1 481.299 1428.08 481.013 L 1431.34 486.105 C 1430.66 492.184 1429.45 492.95 1423.49 494.972 L 1417.63 486.37 z"></path>
<path transform="translate(0,0)" fill="rgb(14,43,72)" d="M 1787.68 504.358 C 1788.21 511.247 1788.51 516.619 1789.95 523.413 C 1784.07 520.232 1780.95 518.891 1774.83 516.506 C 1776.33 511.03 1776.19 510.631 1778.93 505.308 C 1784.78 502.871 1783.93 506.221 1787.68 504.358 z"></path>
<path transform="translate(0,0)" fill="rgb(251,103,1)" d="M 1305.42 487.125 C 1331.7 486.883 1376.59 481.861 1395.74 500.882 C 1419.01 523.999 1418.63 577.903 1395.14 601.079 C 1379.34 616.663 1361.94 615.461 1341.76 615.507 C 1341.52 627.445 1343.09 676.301 1339.69 683.589 C 1334.86 686.722 1311.02 685.345 1304.05 685.109 C 1302.63 651.704 1304.61 614.256 1303.79 580.63 C 1303.51 569.198 1302.83 492.151 1305.42 487.125 z"></path>
<path transform="translate(0,0)" fill="rgb(251,251,249)" d="M 1342.85 524.489 C 1351.07 524.22 1358.8 523.378 1366.07 528.049 C 1380.91 537.59 1377.9 560.379 1369.53 573.105 C 1361.28 580.017 1352.27 578.458 1341.68 578.266 C 1341.6 569.842 1340.45 529.094 1342.85 524.489 z"></path>
<path transform="translate(0,0)" fill="rgb(11,37,63)" d="M 707.449 487.042 L 777.943 486.945 C 787.352 486.94 813.451 486.277 821.201 488.415 C 823.762 493.105 822.587 514.174 822.456 520.67 C 812.091 537.584 801.591 557.739 792.099 575.345 C 779.915 597.679 767.961 620.138 756.238 642.717 C 778.976 642.554 801.715 642.635 824.452 642.959 L 824.672 655.359 C 824.798 663.67 826.533 680.513 821.672 685.525 C 782.552 685.735 743.43 685.665 704.31 685.314 C 703.739 675.847 704.179 661.65 704.165 651.82 C 727.508 610.902 750.157 569.593 772.102 527.91 C 760.193 527.79 716.311 528.884 707.642 527.012 C 703.879 522.889 703.785 492.063 707.449 487.042 z"></path>
<path transform="translate(0,0)" fill="rgb(11,37,63)" d="M 1001.77 541.357 C 1003.66 541.381 1005.54 541.491 1007.41 541.685 C 1056.67 546.692 1057.28 669.42 1014.26 685.519 C 998.62 691.374 988.191 685.645 979.087 673.027 L 979.072 732.857 C 978.117 734.133 977.064 734.745 975.497 734.986 C 970.058 735.82 948.764 736.975 944.642 733.031 C 942.462 730.946 943.457 562.348 943.44 544.76 C 954.568 544.316 964.271 544.517 975.35 544.805 C 975.866 548.999 976.058 554.769 976.334 559.102 C 984.384 547.826 988.304 544.22 1001.77 541.357 z"></path>
<path transform="translate(0,0)" fill="rgb(251,251,249)" d="M 989.184 576.857 C 1014.34 574.121 1009.5 612.288 1008.86 628.193 C 1008.51 637.019 1005.37 645.936 998.367 651.514 C 973.59 656.416 978.958 616.62 978.763 602.609 C 978.615 591.929 980.642 583.413 989.184 576.857 z"></path>
<path transform="translate(0,0)" fill="rgb(251,103,1)" d="M 1758.51 541.377 C 1811.02 541.495 1809.69 648.639 1782.78 676.843 C 1767.35 693.02 1751.73 689.971 1737.16 675.399 C 1736.31 692.959 1737.02 714.429 1736.81 732.396 C 1733.01 737.276 1709.05 736.007 1703.37 733.375 C 1701.5 731.121 1701.38 730.385 1701.41 727.234 C 1701.83 666.479 1700.47 605.284 1701.72 544.577 C 1710.95 543.917 1723.64 544.439 1733.13 544.566 C 1733.65 548.571 1733.91 553.718 1734.24 557.832 C 1742.3 547.627 1745.62 543.815 1758.51 541.377 z"></path>
<path transform="translate(0,0)" fill="rgb(251,251,249)" d="M 1749.68 576.161 C 1761.37 577.351 1765.09 589.654 1765.66 599.737 C 1766.56 615.556 1769.24 644.893 1752.16 652.398 C 1734.71 650.811 1735.7 627.689 1735.96 614.646 C 1736.23 600.815 1734.23 582.001 1749.68 576.161 z"></path>
<path transform="translate(0,0)" fill="rgb(11,37,63)" d="M 876.883 541.377 C 878.425 541.307 879.969 541.286 881.513 541.313 C 944.3 542.24 922.25 619.163 926.539 660.072 C 927.317 667.499 927.133 677.654 926.982 685.22 C 917.619 685.767 905.683 685.493 896.129 685.538 L 894.722 671.225 C 879.712 693.105 858.361 693.548 841.27 673.639 C 835.974 664.992 833.151 655.058 833.106 644.918 C 832.718 608.593 861.666 598.778 892.415 599.004 C 892.506 594.318 893.099 585.744 891.037 581.933 C 879.994 561.519 869.681 576.735 865.517 589.596 C 855.602 587.457 846.453 584.903 836.706 582.198 C 841.735 556.519 850.973 546.311 876.883 541.377 z"></path>
<path transform="translate(0,0)" fill="rgb(251,251,249)" d="M 881.455 624.029 C 885.851 623.83 892.692 622.578 893.34 628.032 C 894.835 640.634 891.342 652.094 879.38 656.635 C 860.527 652.272 862.883 630.499 881.455 624.029 z"></path>
<path transform="translate(0,0)" fill="rgb(251,103,1)" d="M 1633.62 542.254 C 1684.63 537.157 1690.22 585.2 1688.65 623.672 C 1669.39 624.616 1647.65 623.829 1627.86 624.196 C 1628.14 650.3 1647.65 669.103 1660.42 638.219 C 1665.75 639.147 1684.88 644.132 1688.05 648.26 C 1686.98 652.584 1685.48 656.793 1683.59 660.826 C 1663.84 702.168 1610.24 694.187 1598.43 651.353 C 1588.27 614.498 1590.18 556.248 1633.62 542.254 z"></path>
<path transform="translate(0,0)" fill="rgb(251,251,249)" d="M 1638.95 572.769 C 1650.12 572.567 1653.05 578.875 1656.94 588.792 C 1658.08 591.697 1656.93 594.775 1655.25 597.32 C 1652.57 599.185 1648.63 598.538 1645.09 598.452 C 1639.88 598.644 1631.97 599.693 1628.12 596.789 C 1625.44 589.603 1632.85 577.174 1638.95 572.769 z"></path>
<path transform="translate(0,0)" fill="rgb(11,37,63)" d="M 1206.93 544.415 C 1233.99 544.643 1261.09 544.179 1288.14 544.75 L 1288.15 573.657 L 1244.77 649.419 L 1288.86 649.443 L 1289.09 665.959 C 1289.14 672.84 1290.4 680.793 1285.99 685.27 L 1202.31 685.176 C 1202.17 680.128 1201.39 659.947 1202.89 656.812 C 1214.27 632.985 1233.32 602.161 1246.44 579.566 C 1232.83 579.095 1218.55 579.457 1204.89 579.591 C 1204.86 572.533 1203.24 548.588 1206.93 544.415 z"></path>
<path transform="translate(0,0)" fill="rgb(11,37,63)" d="M 1148.64 541.311 C 1150.86 541.272 1153.08 541.313 1155.3 541.435 C 1172.72 542.529 1194.46 556.765 1192.87 576.025 C 1189.81 580.362 1172.01 585.013 1165.99 586.926 C 1164.22 580.315 1160.63 571.29 1153.21 572.22 C 1132.15 574.86 1144.07 590.874 1156.06 595.808 C 1178.52 605.328 1195.09 614.345 1194.94 641.618 C 1194.78 672.28 1176.19 687.787 1146.78 688.036 C 1131.99 685.468 1119.07 680.736 1111.45 666.544 C 1108.93 661.865 1104.96 652.556 1106.46 647.245 C 1110.78 643.639 1128.07 639.591 1134.55 637.849 C 1135.76 642.291 1137.06 647.259 1140.4 650.646 C 1145.56 655.88 1154.85 657.45 1160.05 651.189 C 1161.8 649.114 1162.56 646.38 1162.13 643.7 C 1160.31 631.651 1136.87 625.371 1126.22 618.568 C 1100.04 601.85 1104.52 558.038 1132.21 545.748 C 1137.99 543.18 1142.18 542.344 1148.64 541.311 z"></path>
<path transform="translate(0,0)" fill="rgb(251,103,1)" d="M 1508.28 544.474 C 1531.91 544.513 1561.97 543.499 1584.94 544.845 C 1584.99 549.284 1585.69 568.86 1584.44 571.674 C 1573.84 595.458 1555.26 626.414 1542.65 649.035 C 1557.01 649.198 1571.38 649.28 1585.75 649.282 C 1585.92 657.75 1586.99 674.603 1585.03 682.859 C 1584.64 684.51 1582.75 684.83 1581.25 685.356 L 1501.61 685.291 C 1501.07 668.706 1498.88 659.795 1507.17 645.044 C 1519.34 623.381 1531.71 601.657 1543.56 579.82 C 1530.56 579.359 1516.2 579.659 1502.97 579.411 C 1502.72 571.541 1501.45 554.068 1503.77 546.702 C 1504.33 544.934 1506.49 544.877 1508.28 544.474 z"></path>
<path transform="translate(0,0)" fill="rgb(251,103,1)" d="M 1903.82 541.412 C 1911 541.786 1913.53 541.919 1921.15 544.925 C 1930.49 548.609 1950.05 565.364 1943.27 576.959 C 1941.2 580.483 1923.03 585.429 1917.64 587.124 C 1916.61 583.351 1916.04 580.407 1913.69 577.019 C 1908.4 569.367 1893.97 570.039 1894.67 581.063 C 1896.03 593.827 1913.1 597.685 1923.56 603.002 C 1950.13 616.501 1954.23 655.105 1933.55 675.618 C 1923.5 685.582 1911.83 687.995 1897.42 687.874 C 1872.06 683.138 1863.28 671.409 1858.36 647.255 C 1866.53 643.692 1877.84 640.245 1886.39 637.894 C 1887.77 641.992 1889.19 646.98 1892.34 650.234 C 1899.31 657.446 1914.47 657.733 1913.54 644.366 C 1913.02 635.459 1903.49 630.818 1896.35 627.927 C 1870.81 617.59 1856.93 602.073 1863.53 573.39 C 1868.39 552.241 1883 542.631 1903.82 541.412 z"></path>
<path transform="translate(0,0)" fill="rgb(251,103,1)" d="M 1478.01 542.167 C 1481.28 541.808 1488.74 540.459 1490.6 543.748 C 1495.56 552.561 1492.87 571.88 1492.63 582.241 C 1434.66 575.343 1470.12 652.779 1456.87 683.526 C 1455.44 686.827 1429.26 685.221 1424.54 685.069 C 1423.58 680.203 1423.95 649.456 1423.96 642.892 L 1424.1 544.737 C 1431.37 544.707 1436.96 544.158 1444.17 543.594 C 1457.99 542.511 1457.31 551.232 1457.62 561.325 C 1464.3 550.517 1466.57 547.362 1478.01 542.167 z"></path>
<path transform="translate(0,0)" fill="rgb(11,37,63)" d="M 1077.66 544.493 C 1083.25 544.34 1088.43 544.652 1094 544.938 C 1095.15 589.829 1094.27 640.019 1094.05 685.201 C 1088.71 685.442 1082.52 685.334 1077.1 685.376 C 1071.68 685.413 1064.75 686.069 1059.98 684.035 C 1058.54 681.867 1058.43 678.649 1058.45 673.973 C 1058.66 631.866 1057.72 589.235 1059.06 547.194 C 1059.54 546.691 1060.01 546.188 1060.48 545.685 C 1065.24 543.871 1072.37 544.436 1077.66 544.493 z"></path>
<path transform="translate(0,0)" fill="rgb(251,103,1)" d="M 1823.61 544.498 C 1830.22 544.317 1843.16 542.532 1847.57 547.582 C 1849.06 558.988 1848.39 591.622 1848.06 603.868 C 1847.75 615.272 1849.74 678.181 1846.87 683.763 C 1843.38 685.968 1843.93 685.276 1839.25 685.35 L 1813.65 685.254 C 1812.2 671.705 1811.94 551.113 1814.82 546.009 C 1817.37 544.007 1820.36 544.448 1823.61 544.498 z"></path>
<path transform="translate(0,0)" fill="rgb(11,37,63)" d="M 1072.21 486.928 C 1099.76 485.907 1106.05 519.06 1081.03 529.445 C 1051.57 530.948 1047.98 496.508 1072.21 486.928 z"></path>
<path transform="translate(0,0)" fill="rgb(251,103,1)" d="M 1827.42 486.987 C 1837.57 486.368 1845.24 489.705 1848.94 499.869 C 1851.23 506.062 1850.9 512.923 1848.02 518.866 C 1844.85 525.286 1840.89 527.272 1834.46 529.518 C 1808.36 531.372 1801.57 497.498 1827.42 486.987 z"></path>
<path transform="translate(0,0)" fill="rgb(11,37,63)" d="M 241.457 827.257 C 208.042 832.926 176.446 825.384 165.253 787.717 C 161.516 775.143 159.392 760.557 156.681 747.585 C 151.313 723.101 146.147 698.572 141.185 674.003 C 128.077 611.761 113.913 550.143 101.733 487.673 C 98.8689 472.262 95.5883 456.932 91.8951 441.699 C 89.4657 431.34 85.1413 416.26 84.5272 406.022 C 82.8311 371.624 107.288 337.359 141.35 329.957 C 163.447 325.155 185.661 321.874 207.831 318.156 L 339.97 296.329 C 371.763 291.121 403.521 285.704 435.243 280.078 C 452.587 277.019 470.55 273.523 487.98 271.274 C 493.983 270.721 499.444 272.43 504.469 275.287 C 515.444 281.455 518.339 288.812 520.973 300.381 C 532.07 349.125 541.149 398.475 553.198 446.977 L 553.853 445.582 C 560.938 430.729 580.218 385.159 594.534 378.275 C 609.218 371.215 666.223 403.968 671.685 419.663 C 675.537 430.733 662.352 451.031 656.712 461.45 L 649.441 474.792 L 609.629 549.666 C 604.358 559.39 587.948 588.342 584.937 598.029 C 589.598 616.292 596.486 648.875 598.261 668.187 C 598.722 673.205 589.439 680.123 590.034 685.664 C 592.023 704.256 598.069 722.244 601.521 740.628 C 607.74 773.744 574.782 773.144 551.938 776.63 C 533.94 779.364 515.959 782.205 497.996 785.152 C 440.606 794.653 381.034 805.962 323.682 814.177 C 325.132 824.444 330.615 840.544 327.156 850.198 C 322.23 863.946 293.799 844.875 286.095 840.586 C 255.006 870.405 247.844 875.917 241.457 827.257 z"></path>
<path transform="translate(0,0)" fill="rgb(251,103,1)" d="M 152.376 344.571 C 174.973 339.921 201.686 336.101 224.682 332.278 L 363.843 309.279 L 445.436 295.225 C 459.413 292.794 473.583 290.036 487.569 288.286 C 495.825 287.488 503.017 291.817 504.986 300.183 C 518.101 355.914 528.948 412.536 541.731 468.346 C 529.378 493.925 512.72 520.811 501.252 545.892 L 498.581 550.496 C 495.401 556.454 491.419 563.534 488.627 569.563 C 487.229 572.416 486.762 573.725 484.395 575.972 C 482.344 574.066 477.883 569.849 475.009 570.252 C 460.523 572.284 445.912 575.149 431.464 577.482 C 395.962 582.983 360.551 589.057 325.245 595.703 C 314.304 597.701 303.348 599.606 292.368 601.375 C 288.041 602.072 284.879 606.748 285.219 611.01 C 285.444 613.543 286.747 615.856 288.797 617.361 C 294.451 621.547 302.703 618.145 309.222 616.875 C 365.651 605.884 422.695 597.814 479.168 587.32 C 473.341 599.334 461.884 618.618 457.523 630.434 C 452.834 643.137 451.479 674.435 450.377 689.087 L 318.299 710.553 C 292.836 714.807 256.461 722.129 231.53 724.471 C 222.326 688.27 213.677 641.686 205.678 604.555 C 187.165 518.048 169.397 431.383 152.376 344.571 z"></path>
<path transform="translate(0,0)" fill="rgb(11,37,63)" d="M 344.156 354.213 C 347.758 353.999 351.371 354.033 354.968 354.315 C 374.589 355.963 388.269 365.639 400.513 380.073 C 411.883 377.45 422.498 376.465 433.873 380.004 C 462.074 388.78 481.097 421.751 471.141 450.304 C 465.313 467.022 455.632 475.963 440.329 483.745 C 442.505 494.378 458.334 548.389 441.211 548.067 C 414.937 547.573 390.482 544.702 364.5 552.52 C 295.937 566.696 305.924 593.19 289.486 507.293 C 261.502 503.986 238.222 485.77 235.476 456.473 C 234.196 441.898 238.834 427.421 248.344 416.302 C 260.068 402.34 272.598 398.014 289.898 396.547 C 299.34 370.404 317.566 358.536 344.156 354.213 z"></path>
<path transform="translate(0,0)" fill="rgb(251,251,249)" d="M 344.528 370.157 C 370.134 369.011 383.051 379.587 394.479 401.131 C 410.672 392.805 424.386 389.043 440.698 400.684 C 449.551 407.036 455.507 416.655 457.248 427.41 C 458.899 437.537 456.446 447.904 450.433 456.217 C 442.539 467.057 433.812 469.767 421.541 471.68 C 424.886 491.439 429.448 512.21 433.464 531.931 C 412.613 530.094 388.618 530.274 368.116 534.204 C 348.382 538.334 333.087 543.776 314.587 550.956 C 309.717 532.355 306.751 509.646 302.377 490.305 C 278.084 493.715 256.113 483.873 251.714 457.709 C 250.056 447.469 252.48 436.988 258.464 428.516 C 263.829 420.99 272.771 414.724 281.889 413.513 C 290.136 412.122 300.84 417.649 303.214 406.521 C 307.984 384.161 323.093 374.526 344.528 370.157 z"></path>
<path transform="translate(0,0)" fill="rgb(11,37,63)" d="M 422.943 633.299 C 431.573 632.446 437.126 642.572 432.587 646.75 C 424.862 653.86 395.776 656.215 385.643 657.794 L 308.215 669.659 C 294.727 668.572 294.458 653.714 304.696 651.759 C 319.133 649.002 334.207 646.988 348.776 644.795 L 422.943 633.299 z"></path>
<path transform="translate(0,0)" fill="rgb(252,172,9)" d="M 582.177 420.002 C 589.084 423.428 595.916 427.006 602.666 430.732 C 609.825 433.842 619.061 439.204 625.71 443.478 C 624.793 445.014 622.831 447.97 622.497 449.559 C 597.447 494.328 572.877 539.364 548.792 584.659 C 538.137 604.402 528.237 624.052 516.754 643.339 C 512.246 643.032 504.144 641.926 500.346 643.857 C 497.999 639.363 496.777 636.056 494.994 631.284 L 492.073 629.394 C 486.986 631.988 477.505 633.676 473.089 629.494 C 472.898 624.435 494.158 586.463 498.313 578.29 C 498.176 575.129 498.291 574.393 496.463 571.874 C 493.518 569.803 492.119 569.897 488.627 569.563 C 491.419 563.534 495.401 556.454 498.581 550.496 L 501.252 545.892 C 504.769 544.787 505.846 544.292 509.647 544.589 C 512.325 546.185 512.342 546.032 513.67 549.724 C 536.83 506.663 559.008 462.822 582.177 420.002 z"></path>
<path transform="translate(0,0)" fill="rgb(106,69,10)" d="M 599.651 431.569 C 599.055 435.176 586.192 458.509 583.727 463.164 L 521.057 580.368 C 516.506 588.891 497.172 623.79 494.994 631.284 L 492.073 629.394 C 504.396 605.75 592.09 437.612 599.651 431.569 z"></path>
<path transform="translate(0,0)" fill="rgb(11,32,54)" d="M 501.252 545.892 C 504.769 544.787 505.846 544.292 509.647 544.589 C 512.325 546.185 512.342 546.032 513.67 549.724 L 511.681 552.893 C 507.478 561.489 503.02 569.959 498.313 578.29 C 498.176 575.129 498.291 574.393 496.463 571.874 C 493.518 569.803 492.119 569.897 488.627 569.563 C 491.419 563.534 495.401 556.454 498.581 550.496 L 501.252 545.892 z"></path>
<path transform="translate(0,0)" fill="rgb(14,43,72)" d="M 501.252 545.892 C 504.769 544.787 505.846 544.292 509.647 544.589 C 512.325 546.185 512.342 546.032 513.67 549.724 L 511.681 552.893 C 506.923 554.89 506.001 557.393 501.658 557.228 C 498.733 554.133 499.585 555.065 498.581 550.496 L 501.252 545.892 z"></path>
<path transform="translate(0,0)" fill="rgb(251,103,1)" d="M 625.71 443.478 C 632.14 447.267 638.496 451.179 644.775 455.212 C 641.374 460.813 639.036 465.027 636.106 470.886 L 533.33 661.882 C 533.085 662.135 532.109 662.368 531.691 662.501 C 526.302 657.185 525.704 659.184 519.85 655.473 C 517.756 651.766 519.577 647.458 518.982 645.118 C 518.183 641.971 504.921 646.722 500.346 643.857 C 504.144 641.926 512.246 643.032 516.754 643.339 C 528.237 624.052 538.137 604.402 548.792 584.659 C 572.877 539.364 597.447 494.328 622.497 449.559 C 622.831 447.97 624.793 445.014 625.71 443.478 z"></path>
<path transform="translate(0,0)" fill="rgb(106,69,10)" d="M 622.497 449.559 L 623.191 450.958 C 620.235 459.524 609.053 479.164 604.284 488.404 C 584.256 526.595 563.703 564.508 542.629 602.133 C 534.771 616.411 526.343 630.622 520.031 645.65 C 516.943 653.003 528.694 658.341 533.33 661.882 C 533.085 662.135 532.109 662.368 531.691 662.501 C 526.302 657.185 525.704 659.184 519.85 655.473 C 517.756 651.766 519.577 647.458 518.982 645.118 C 518.183 641.971 504.921 646.722 500.346 643.857 C 504.144 641.926 512.246 643.032 516.754 643.339 C 528.237 624.052 538.137 604.402 548.792 584.659 C 572.877 539.364 597.447 494.328 622.497 449.559 z"></path>
<path transform="translate(0,0)" fill="rgb(11,32,54)" d="M 644.775 455.212 C 645.258 460.074 644.388 459.564 647.233 461.996 C 650.121 462.583 653.822 462.089 656.712 461.45 L 649.441 474.792 C 648.941 470.884 648.802 470.459 645.63 468.605 C 641.844 468.298 639.639 469.488 636.106 470.886 C 639.036 465.027 641.374 460.813 644.775 455.212 z"></path>
<path transform="translate(0,0)" fill="rgb(251,251,249)" d="M 512.201 698.206 C 532.773 695.304 554.165 691.571 574.753 688.294 C 574.696 697.044 575.918 705.322 575.828 714.515 C 575.291 719.05 575.618 722.252 577.463 726.546 C 581.603 735.253 592.833 750.226 578.079 753.818 C 567.861 756.306 557.756 757.7 547.39 759.319 C 531.184 761.837 514.992 764.442 498.815 767.134 L 319.498 796.723 C 318.167 788.582 316.665 780.469 314.994 772.391 C 319.561 768.287 323.263 764.866 319.247 758.856 C 317.377 757.78 315.175 756.683 312.963 756.926 C 289.247 759.532 265.734 764.67 242.094 767.968 C 234.193 769.07 225.537 769.538 225.817 779.869 C 227.595 783.786 232.382 784.614 232.967 785.452 C 235.73 789.414 237.554 804.712 238.317 809.477 C 224.672 811.223 212.565 812.614 200.706 803.644 C 176.387 785.248 193.964 753.312 218.456 745.934 C 236.268 740.568 255.128 739.082 273.42 735.754 C 283.471 733.973 293.771 732.469 303.893 730.797 L 395.849 715.77 C 412.741 713.032 432.531 709.354 449.333 707.48 C 448.599 715.601 447.943 726.319 446.782 734.191 C 454.882 751.03 465.169 738.733 474.175 730.763 C 486.219 719.83 499.698 708.645 512.201 698.206 z"></path>
<path transform="translate(0,0)" fill="rgb(251,251,249)" d="M 512.201 698.206 C 532.773 695.304 554.165 691.571 574.753 688.294 C 574.696 697.044 575.918 705.322 575.828 714.515 C 562.117 716.759 482.913 731.712 474.175 730.763 C 486.219 719.83 499.698 708.645 512.201 698.206 z"></path>
<path transform="translate(0,0)" fill="url(#svgi_r_1v___Gradient1)" d="M 474.175 730.763 C 482.913 731.712 562.117 716.759 575.828 714.515 C 575.291 719.05 575.618 722.252 577.463 726.546 C 566.619 729.876 430.116 752.42 424.03 750.95 L 424.508 750.055 C 429.192 749.483 449.114 746.745 452.485 745.177 L 452.507 743.955 C 451.107 743.497 449.472 743.387 448.858 742.189 C 446.992 738.554 444.441 738.248 441.485 736.023 L 446.782 734.191 C 454.882 751.03 465.169 738.733 474.175 730.763 z"></path>
<path transform="translate(0,0)" fill="rgb(251,103,1)" d="M 300.015 773.537 L 301.27 774.209 C 304.421 782.96 312.546 829.054 314.847 841.025 C 304.566 835.601 293.978 829.399 283.373 824.78 C 278.858 828.643 272.81 834.978 268.444 839.326 L 258.911 848.86 C 256.264 829.442 250.187 801.221 246.236 781.95 C 258.247 779.231 287.733 774.88 300.015 773.537 z"></path>
<path transform="translate(0,0)" fill="rgb(247,224,182)" d="M 468.708 635.863 C 481.405 639.006 477.893 643.003 491.586 637.118 C 493.043 642.101 494.944 646.913 496.779 651.769 C 501.211 651.437 509.286 649.878 513.242 650.705 C 514.293 660.345 521.702 662.196 529.215 667.978 C 522.232 674.424 514.826 680.868 507.72 687.219 C 500.779 693.537 493.726 699.73 486.565 705.797 C 479.184 696.461 473.724 693.398 462.073 692.086 C 462.672 681.26 464.417 642.956 468.708 635.863 z"></path>
<path transform="translate(0,0)" fill="rgb(251,103,1)" d="M 573.297 617.052 C 575.165 623.694 578.884 638.603 579.492 645.197 C 587.708 672.631 570.244 671.081 549.264 674.385 C 546.088 674.885 542.795 675.199 539.605 675.593 C 545.764 667.759 553.563 652.528 558.587 643.333 C 562.613 635.433 568.588 624.717 573.297 617.052 z"></path>
<path transform="translate(0,0)" fill="rgb(11,32,54)" d="M 681.195 533.538 C 683.368 538.804 684.095 540.841 687.413 545.384 C 684.046 546.876 679.695 548.275 677.971 551.334 C 674.494 547.268 674 546.294 671.801 541.37 C 675.677 535.457 678.201 539.365 681.195 533.538 z"></path>
</svg>